PathFileType	4	(X/Y/Z)	./resultDataOpenSim/trcMotMarkerGrf/sub06/qtm-12-01.trc
DataRate	CameraRate	NumFrames	NumMarkers	Units	OrigDataRate	OrigDataStartFrame	OrigNumFrames
250.000000	250.000000	15	24	m	250.000000	429	490
Frame#	Time	L.Toe.Tip			R.Toe.Tip			L.Ankle.Lat			R.Ankle.Lat			L.Ankle.Med			R.Ankle.Med			L.Heel			R.Heel			L.Knee.Lat			R.Knee.Lat			L.Knee.Med			R.Knee.Med			L.Thigh.Upper			R.Thigh.Upper			L.ASIS			R.ASIS			V.Sacral			L.Acromium			R.Acromium			C7			L.Elbow			R.Elbow			L.Wrist.Lat			R.Wrist.Lat
		X1	Y1	Z1	X2	Y2	Z2	X3	Y3	Z3	X4	Y4	Z4	X5	Y5	Z5	X6	Y6	Z6	X7	Y7	Z7	X8	Y8	Z8	X9	Y9	Z9	X10	Y10	Z10	X11	Y11	Z11	X12	Y12	Z12	X13	Y13	Z13	X14	Y14	Z14	X15	Y15	Z15	X16	Y16	Z16	X17	Y17	Z17	X18	Y18	Z18	X19	Y19	Z19	X20	Y20	Z20	X21	Y21	Z21	X22	Y22	Z22	X23	Y23	Z23	X24	Y24	Z24

429	1.712	1.7064769	0.033943466	-0.037309837	1.0988402	0.077433552	0.096057075	1.5816786	0.066246808	-0.068561099	1.0986927	0.22173666	0.12048798	1.5786803	0.080456056	0.017640834	1.1426329	0.20398257	0.044903425	1.5047652	0.038402765	-0.028827863	1.0770785	0.25976054	0.046982037	1.6319665	0.4390169	-0.082556247	1.4233318	0.40693311	0.19720355	1.5970182	0.43780717	0.033038815	1.4420457	0.38133037	0.066176851	1.5016795	0.81046283	-0.15686039	1.3667423	0.77271699	0.17290074	1.5525979	0.8544508	-0.093647107	1.4973697	0.83063582	0.14512821	1.3369127	0.90607905	-0.0045849001	1.4614714	1.3151267	-0.18545081	1.4168046	1.3152706	0.17426465	1.3534866	1.3508907	-0.017919658	1.3692327	1.0167699	-0.22862736	1.4223648	0.98862492	0.26331541	1.4522982	0.79277222	-0.28946627	1.659939	0.96548931	0.19790046
430	1.716	1.706459	0.033945915	-0.037410073	1.112753	0.079569861	0.099532232	1.5816557	0.066210383	-0.068627199	1.1118891	0.22406584	0.121843	1.5786646	0.080530832	0.017553809	1.1546912	0.20583599	0.045751971	1.5047766	0.038534099	-0.028949311	1.0881952	0.26058492	0.04698211	1.6335053	0.43848501	-0.082831126	1.4345203	0.40858412	0.19845324	1.5982735	0.43756376	0.032692617	1.4529065	0.38345963	0.067373115	1.5068232	0.8114466	-0.15703927	1.372445	0.77408801	0.17252255	1.5577352	0.85534658	-0.093995977	1.5033699	0.83230533	0.14514418	1.3424963	0.90747494	-0.0044507282	1.4671391	1.3165025	-0.18538735	1.421977	1.3166914	0.17428557	1.3589053	1.3522529	-0.018094472	1.3776021	1.0163854	-0.22843161	1.425627	0.98959991	0.26305017	1.4658025	0.79396344	-0.28823563	1.6614029	0.96058138	0.19982634
431	1.72	1.7064372	0.033948876	-0.037496636	1.1271143	0.081596646	0.10265278	1.581616	0.066206668	-0.068714261	1.124123	0.22609599	0.12270883	1.5785061	0.080561086	0.017515307	1.1669133	0.20751587	0.046616673	1.5048065	0.038704443	-0.029076579	1.0993977	0.26117012	0.0470526	1.6350025	0.43803529	-0.083003625	1.4456307	0.41039971	0.19960892	1.5991437	0.43750835	0.032405179	1.4637022	0.38563998	0.068490371	1.5119167	0.8124258	-0.15722745	1.3779413	0.7755942	0.17228522	1.5629976	0.8562538	-0.094318178	1.5091987	0.83410649	0.1451339	1.3480386	0.90897451	-0.0045713626	1.4727572	1.317996	-0.18531507	1.4269281	1.3182044	0.17434338	1.3642788	1.3536674	-0.018241011	1.3859406	1.0161005	-0.2282319	1.4273526	0.99087262	0.2618626	1.4793684	0.79540543	-0.28694798	1.6626666	0.95571022	0.20181494
432	1.724	1.7064129	0.033952749	-0.037566737	1.1417521	0.083424246	0.10567841	1.5815529	0.066241224	-0.068851791	1.1350289	0.22777169	0.12293549	1.5782671	0.080564497	0.01751643	1.1792551	0.20898105	0.04755053	1.5048276	0.038878548	-0.029139316	1.1107027	0.26155702	0.047271663	1.6364742	0.43766269	-0.083072366	1.4567267	0.41237384	0.20067951	1.5996278	0.43759877	0.032157758	1.4744464	0.38787164	0.069503086	1.5168	0.81338977	-0.15739096	1.3833494	0.77720795	0.17214224	1.5682627	0.85719119	-0.094624412	1.5147197	0.83610231	0.14513762	1.3535354	0.91054978	-0.0049983439	1.4783106	1.319555	-0.18521915	1.4314419	1.3198473	0.17445465	1.3696079	1.3551352	-0.018359165	1.3942534	1.0159234	-0.22801544	1.4266405	0.99253378	0.25929653	1.4929744	0.79709419	-0.28560443	1.6637129	0.95089545	0.20385956
433	1.728	1.7063906	0.033957627	-0.037617253	1.1565424	0.085005246	0.10875539	1.5814771	0.066307383	-0.069015623	1.1450046	0.22910148	0.1227497	1.5780828	0.080585831	0.01753165	1.1916749	0.21020998	0.048565864	1.5048369	0.039053461	-0.029180534	1.1221137	0.26175546	0.047691257	1.637931	0.43736555	-0.083031367	1.4678074	0.41450735	0.20165832	1.5997194	0.43777345	0.031937367	1.4852549	0.39015858	0.070433593	1.5214876	0.81432236	-0.15753011	1.3889334	0.77886851	0.17202643	1.5733665	0.85817217	-0.094919254	1.5200584	0.83823993	0.14516882	1.3589427	0.91219516	-0.005681254	1.4837918	1.3211443	-0.1850929	1.4353943	1.3216461	0.17462683	1.3749011	1.3566602	-0.018453387	1.402543	1.0158638	-0.22778248	1.4244661	0.99452202	0.25592182	1.5065799	0.79903348	-0.28420208	1.6645327	0.94614336	0.20595453
434	1.732	1.7063743	0.033961666	-0.037647514	1.1714432	0.08634678	0.11186387	1.5814141	0.066388879	-0.069138131	1.1550905	0.23014432	0.12266538	1.5780292	0.080657011	0.017542989	1.204163	0.21119487	0.049631626	1.5048414	0.039233929	-0.029273371	1.1336377	0.26174121	0.048291411	1.6393593	0.43714389	-0.082882966	1.4787855	0.41680806	0.20252266	1.5994901	0.43797943	0.031753484	1.4962534	0.39250726	0.071311403	1.52608	0.81521057	-0.15767343	1.394912	0.78052631	0.17188419	1.5782165	0.85919533	-0.095200912	1.5253529	0.84042678	0.14522977	1.3642185	0.91390561	-0.0064874441	1.4892105	1.3227636	-0.18494318	1.4389998	1.3235534	0.17483683	1.3801638	1.3582317	-0.018529284	1.4108098	1.0159187	-0.22754563	1.4234273	0.99661977	0.25316559	1.5201501	0.80123062	-0.28273631	1.6651435	0.94145108	0.20809992
435	1.736	1.7063664	0.033962085	-0.037660728	1.1864548	0.087473961	0.11493667	1.5813815	0.066472482	-0.069181353	1.1661076	0.23095546	0.12305631	1.5780833	0.080783406	0.017547519	1.216735	0.21193494	0.050725174	1.5048449	0.039414245	-0.029415594	1.1452865	0.26147051	0.049008544	1.6407257	0.43699255	-0.08264386	1.4896579	0.41928541	0.20328221	1.5990766	0.43819016	0.031629502	1.507429	0.39492087	0.072126549	1.5305842	0.81604861	-0.15783527	1.4013951	0.78215567	0.17169613	1.5828751	0.86024658	-0.095465323	1.5305946	0.84262885	0.14533031	1.3693403	0.91565048	-0.0072488973	1.494584	1.3244252	-0.18477737	1.4427226	1.3254615	0.17504168	1.3854007	1.3598283	-0.018585165	1.4190512	1.0160774	-0.22731576	1.4249371	0.99864217	0.25179198	1.5336797	0.8036857	-0.28120345	1.6655835	0.93682271	0.21030067
436	1.74	1.7063679	0.033957185	-0.037662181	1.2015809	0.088406671	0.11793497	1.5813745	0.066554971	-0.069167241	1.1780747	0.23152669	0.12391	1.5782029	0.080960797	0.017545084	1.2293995	0.21243311	0.05185038	1.5048482	0.039584763	-0.029528555	1.1570532	0.26090764	0.049796016	1.6420067	0.43689905	-0.082339364	1.500475	0.42192719	0.2039579	1.5986009	0.43839749	0.031582106	1.5186689	0.3973988	0.072841681	1.5349164	0.81683525	-0.1580017	1.4083342	0.7837644	0.17149013	1.5874766	0.86130975	-0.095713542	1.5357192	0.84485266	0.14546946	1.3743073	0.91739367	-0.0078234208	1.4999239	1.3261338	-0.1845957	1.4468497	1.3272966	0.17521629	1.3906217	1.3614382	-0.018612201	1.4272653	1.0163339	-0.22709686	1.4279472	1.0005528	0.25125047	1.5472194	0.80638476	-0.27959709	1.6658797	0.93227346	0.21255514
437	1.744	1.7063739	0.033947093	-0.037657681	1.2168225	0.089158123	0.12085366	1.5813772	0.066638775	-0.069131086	1.1905197	0.23179752	0.12499577	1.5783807	0.08118159	0.017531599	1.2421475	0.21269574	0.053016661	1.5048486	0.039742726	-0.029554219	1.1689007	0.26003447	0.050647635	1.6431941	0.43684934	-0.08199773	1.5111847	0.42469097	0.20453427	1.5982037	0.43860609	0.031624034	1.529875	0.39994137	0.073433901	1.5390491	0.8175769	-0.15814281	1.4155684	0.78538119	0.17132185	1.5920892	0.86237868	-0.095955689	1.540708	0.84710049	0.14563091	1.379126	0.91913057	-0.0081533914	1.5052318	1.3278848	-0.18439849	1.4513205	1.3290608	0.17536422	1.395835	1.363063	-0.018605556	1.4354506	1.0166835	-0.22689078	1.4306936	1.0024094	0.25065661	1.5608996	0.80930172	-0.27790381	1.6660314	0.92782168	0.2148488
438	1.748	1.7063752	0.033933711	-0.037653523	1.2321883	0.089742531	0.12369795	1.5813765	0.066726871	-0.069084034	1.2030089	0.23172898	0.12608329	1.5786278	0.08143108	0.017505382	1.2549634	0.2127351	0.054226968	1.5048378	0.03989094	-0.029511187	1.1807842	0.25884754	0.051576287	1.6442777	0.4368325	-0.081646878	1.5217237	0.42753344	0.20499895	1.5980636	0.4388348	0.031765889	1.5409478	0.4025544	0.073908453	1.5431261	0.81829105	-0.15823288	1.4229491	0.78702931	0.17123569	1.5967073	0.86345751	-0.09620631	1.5456723	0.84936137	0.14576922	1.3837623	0.92087988	-0.0082670976	1.5105068	1.3296741	-0.18419231	1.455964	1.3307885	0.17549631	1.4010398	1.3647027	-0.018571173	1.4435962	1.0171142	-0.22670242	1.4324715	1.0042901	0.24970564	1.5748621	0.81241076	-0.27610989	1.666025	0.92348234	0.21716344
439	1.752	1.7063663	0.03392075	-0.037654752	1.2476917	0.090178616	0.12647227	1.5813647	0.066823127	-0.069023594	1.2153933	0.23134413	0.12705064	1.5789585	0.081697729	0.017470479	1.2678388	0.21256703	0.055485668	1.504806	0.040034073	-0.029451463	1.1926762	0.25736281	0.052587647	1.6452389	0.43684154	-0.081311333	1.5321343	0.4304325	0.20537006	1.5982396	0.43909981	0.031992443	1.5517713	0.40524916	0.074282804	1.547335	0.81899432	-0.15826464	1.430401	0.78871598	0.17124824	1.6013082	0.86455324	-0.096477917	1.55087	0.85162222	0.14579821	1.3880962	0.92264545	-0.0082348864	1.51576	1.3315073	-0.18399039	1.4607074	1.3325077	0.17561963	1.4062254	1.3663432	-0.018521526	1.4516844	1.0176143	-0.22653817	1.4336675	1.0062518	0.24859279	1.589059	0.81570976	-0.2742212	1.6658584	0.91926642	0.21948942
440	1.756	1.7063515	0.033912623	-0.037661951	1.2633426	0.090487506	0.12918378	1.5813373	0.06693604	-0.068959266	1.2277679	0.23069079	0.12793053	1.5793867	0.081983643	0.017430917	1.2807821	0.21220163	0.05682016	1.5047576	0.04018681	-0.029401504	1.204574	0.25561036	0.053672505	1.646065	0.43687495	-0.081008309	1.5424891	0.43337592	0.20565933	1.5986059	0.43939523	0.032259461	1.5623309	0.40804127	0.074562367	1.5516535	0.81968644	-0.15825101	1.4379028	0.79043783	0.1713575	1.605877	0.86567055	-0.096777524	1.5564449	0.85388176	0.14566399	1.3920119	0.92440896	-0.0081296982	1.5210158	1.3333944	-0.18380933	1.4655696	1.3342329	0.17574281	1.4113748	1.3679641	-0.01846807	1.4597081	1.0181837	-0.22639709	1.4348929	1.0082972	0.24754341	1.6031696	0.8192315	-0.27226843	1.6655443	0.9151843	0.22182766
441	1.76	1.7063407	0.033912022	-0.037671315	1.2791489	0.09068832	0.13183797	1.5812937	0.067081918	-0.068924996	1.2402724	0.22979806	0.12884105	1.5798787	0.082288622	0.017391739	1.2938222	0.21163714	0.058302563	1.5047189	0.040376475	-0.029347924	1.2164896	0.2536099	0.054814303	1.6467631	0.43693882	-0.080746901	1.5528324	0.4363426	0.20586842	1.5990212	0.43969835	0.032526149	1.57277	0.41094593	0.074735729	1.5558844	0.82035938	-0.15821473	1.4454507	0.79218835	0.17155596	1.6104103	0.8668098	-0.097105354	1.5620602	0.85614716	0.14546478	1.3956803	0.92615216	-0.0079999064	1.5262787	1.3353277	-0.18365584	1.4705511	1.335961	0.17587251	1.4164791	1.3695551	-0.018415406	1.467678	1.0188266	-0.22626921	1.4364188	1.0103721	0.24661035	1.6168322	0.82301737	-0.27028108	1.6650936	0.91124737	0.22417964
442	1.764	1.7063418	0.033918116	-0.037679482	1.2951189	0.090790742	0.13442748	1.5812388	0.067281218	-0.068961516	1.2529616	0.22867963	0.12986361	1.5803271	0.082596031	0.017363548	1.3069838	0.21086871	0.060005205	1.5047184	0.040621423	-0.02926521	1.2284351	0.25135903	0.055997881	1.6473491	0.4370438	-0.080535713	1.5631801	0.43929786	0.20600762	1.5994541	0.43998996	0.03277526	1.5832075	0.41396286	0.074797635	1.5599176	0.82101949	-0.15817127	1.4530391	0.79396164	0.17183718	1.6149103	0.8679675	-0.097459281	1.5671374	0.85841485	0.14538788	1.3996407	0.92786244	-0.0078558581	1.5315111	1.3372698	-0.18351627	1.4755616	1.3376713	0.17600052	1.4215475	1.3711176	-0.018357439	1.4756131	1.0195402	-0.22614943	1.4382305	1.0124172	0.24575415	1.6299074	0.82708209	-0.26826548	1.6645098	0.90746277	0.2265398
443	1.768	1.7063577	0.033926719	-0.037687924	1.3112547	0.090791896	0.13693494	1.5811921	0.067542251	-0.069065358	1.265828	0.22734616	0.13101592	1.5806375	0.082893206	0.017351503	1.3202303	0.20991471	0.06184777	1.5047609	0.040909952	-0.029152916	1.2404141	0.24884937	0.057212627	1.6478344	0.43719508	-0.080386993	1.5735056	0.44221033	0.20608623	1.5999376	0.44026538	0.033004938	1.5935502	0.41707374	0.074761863	1.5637985	0.82168769	-0.15812217	1.4606568	0.79575299	0.17219676	1.6193738	0.86913659	-0.09784107	1.5716556	0.86066582	0.1454586	1.4043578	0.92952439	-0.0076958199	1.5366707	1.339179	-0.18337112	1.4804908	1.3393413	0.17610668	1.4265962	1.3726504	-0.018283207	1.4835241	1.0203151	-0.22604629	1.4402518	1.0144347	0.24494073	1.6425226	0.83140359	-0.26620922	1.6637995	0.90382921	0.22890184
